<svg width="67" height="56" fill="none" xmlns="http://www.w3.org/2000/svg"><path d="M5.923 24.567S33.287 13.25 42.777 9.266C46.415 7.672 58.752 2.57 58.752 2.57s5.694-2.23 5.22 3.188c-.159 2.231-1.424 10.041-2.69 18.489C59.386 36.202 57.33 49.27 57.33 49.27s-.317 3.666-3.005 4.304c-2.69.637-7.118-2.232-7.91-2.87-.632-.478-11.862-7.65-15.974-11.156-1.107-.956-2.373-2.87.158-5.1 5.694-5.26 12.496-11.795 16.608-15.939 1.898-1.913 3.796-6.376-4.112-.957A1351.365 1351.365 0 0120.79 32.695s-2.53 1.594-7.275.16c-4.744-1.435-10.28-3.347-10.28-3.347s-3.796-2.392 2.69-4.941h-.002z" stroke="#fff" stroke-width="4.041"/></svg>